<svg width="30" height="31" viewBox="0 0 30 31" fill="none" xmlns="http://www.w3.org/2000/svg">
<circle cx="15" cy="15.957" r="15" fill="url(#paint0_linear_736_3995)"/>
<path d="M18.5622 9.67012V8.50012C18.5622 8.19262 18.3072 7.93762 17.9997 7.93762C17.6922 7.93762 17.4372 8.19262 17.4372 8.50012V9.62512H12.5622V8.50012C12.5622 8.19262 12.3072 7.93762 11.9997 7.93762C11.6922 7.93762 11.4372 8.19262 11.4372 8.50012V9.67012C9.41218 9.85762 8.42968 11.0651 8.27968 12.8576C8.26468 13.0751 8.44468 13.2551 8.65468 13.2551H21.3447C21.5622 13.2551 21.7422 13.0676 21.7197 12.8576C21.5697 11.0651 20.5872 9.85762 18.5622 9.67012Z" fill="white"/>
<path opacity="0.6" d="M21 14.3802C21.4125 14.3802 21.75 14.7177 21.75 15.1302V19.7502C21.75 22.0002 20.625 23.5002 18 23.5002H12C9.375 23.5002 8.25 22.0002 8.25 19.7502V15.1302C8.25 14.7177 8.5875 14.3802 9 14.3802H21Z" fill="white"/>
<path d="M12.375 18.25C12.2775 18.25 12.18 18.2275 12.09 18.19C12 18.1525 11.9175 18.1 11.8425 18.0325C11.775 17.9575 11.7225 17.875 11.685 17.785C11.6475 17.695 11.625 17.5975 11.625 17.5C11.625 17.4025 11.6475 17.305 11.685 17.215C11.7225 17.125 11.775 17.0425 11.8425 16.9675C11.9175 16.9 12 16.8475 12.09 16.81C12.27 16.735 12.48 16.735 12.66 16.81C12.75 16.8475 12.8325 16.9 12.9075 16.9675C12.975 17.0425 13.0275 17.125 13.065 17.215C13.1025 17.305 13.125 17.4025 13.125 17.5C13.125 17.5975 13.1025 17.695 13.065 17.785C13.0275 17.875 12.975 17.9575 12.9075 18.0325C12.8325 18.1 12.75 18.1525 12.66 18.19C12.57 18.2275 12.4725 18.25 12.375 18.25Z" fill="white"/>
<path d="M15 18.2502C14.9025 18.2502 14.805 18.2277 14.715 18.1902C14.625 18.1527 14.5425 18.1002 14.4675 18.0327C14.3325 17.8902 14.25 17.6952 14.25 17.5002C14.25 17.3052 14.3325 17.1102 14.4675 16.9677C14.5425 16.9002 14.625 16.8477 14.715 16.8102C14.895 16.7277 15.105 16.7277 15.285 16.8102C15.375 16.8477 15.4575 16.9002 15.5325 16.9677C15.6675 17.1102 15.75 17.3052 15.75 17.5002C15.75 17.6952 15.6675 17.8902 15.5325 18.0327C15.4575 18.1002 15.375 18.1527 15.285 18.1902C15.195 18.2277 15.0975 18.2502 15 18.2502Z" fill="white"/>
<path d="M12.375 20.8752C12.2775 20.8752 12.18 20.8527 12.09 20.8152C12 20.7777 11.9175 20.7252 11.8425 20.6577C11.7075 20.5152 11.625 20.3202 11.625 20.1252C11.625 19.9302 11.7075 19.7352 11.8425 19.5927C11.9175 19.5252 12 19.4727 12.09 19.4352C12.27 19.3602 12.48 19.3602 12.66 19.4352C12.75 19.4727 12.8325 19.5252 12.9075 19.5927C13.0425 19.7352 13.125 19.9302 13.125 20.1252C13.125 20.3202 13.0425 20.5152 12.9075 20.6577C12.8325 20.7252 12.75 20.7777 12.66 20.8152C12.57 20.8527 12.4725 20.8752 12.375 20.8752Z" fill="white"/>
<defs>
<linearGradient id="paint0_linear_736_3995" x1="-4.23077" y1="-10.5814" x2="37.3077" y2="30.957" gradientUnits="userSpaceOnUse">
<stop stop-color="#C84E89"/>
<stop offset="1" stop-color="#F15F79"/>
</linearGradient>
</defs>
</svg>
