<svg width="30" height="30" viewBox="0 0 30 30" fill="none" xmlns="http://www.w3.org/2000/svg">
<circle cx="15" cy="15" r="15" fill="url(#paint0_linear_736_3994)"/>
<path opacity="0.6" d="M15 10.1146V21.8032C15.124 21.8032 15.2552 21.7812 15.3573 21.7229L15.3865 21.7084C16.7865 20.9427 19.2291 20.1406 20.8114 19.9292L21.0229 19.9C21.7229 19.8125 22.2917 19.1563 22.2917 18.4563V9.64792C22.2917 8.78021 21.5844 8.12396 20.7167 8.19688C19.1854 8.32084 16.8667 9.09378 15.5688 9.90315L15.3865 10.0125C15.2771 10.0781 15.1385 10.1146 15 10.1146Z" fill="white"/>
<path d="M7.7085 9.65499V18.456C7.7085 19.156 8.27724 19.8123 8.97724 19.8998L9.21788 19.929C10.8075 20.1404 13.2575 20.9498 14.6575 21.7227C14.7523 21.781 14.8689 21.8029 15.0002 21.8029V10.1144C14.8616 10.1144 14.7231 10.0779 14.6137 10.0123L14.4897 9.93208C13.1918 9.11541 10.8658 8.3352 9.33452 8.20395H9.29078C8.42307 8.13104 7.7085 8.77999 7.7085 9.65499Z" fill="white"/>
<defs>
<linearGradient id="paint0_linear_736_3994" x1="0" y1="15" x2="30" y2="15" gradientUnits="userSpaceOnUse">
<stop stop-color="#FFA751"/>
<stop offset="1" stop-color="#FFE259"/>
</linearGradient>
</defs>
</svg>
