<svg width="30" height="30" viewBox="0 0 30 30" fill="none" xmlns="http://www.w3.org/2000/svg">
<circle cx="15" cy="15" r="15" fill="url(#paint0_linear_736_3996)"/>
<path opacity="0.6" d="M16.1562 9.20032H11.4687C8.79687 9.20032 7.75781 10.1008 7.75781 12.4165V17.8331C7.75781 19.3904 8.73437 21.0493 11.4687 21.0493H16.1562C18.8281 21.0493 19.8672 20.1488 19.8672 17.8331V12.4165C19.8672 10.1008 18.8281 9.20032 16.1562 9.20032Z" fill="white"/>
<path d="M14.9844 14.7053C15.7955 14.7053 16.4531 14.1354 16.4531 13.4324C16.4531 12.7294 15.7955 12.1595 14.9844 12.1595C14.1732 12.1595 13.5156 12.7294 13.5156 13.4324C13.5156 14.1354 14.1732 14.7053 14.9844 14.7053Z" fill="white"/>
<path d="M22.9141 11.1774C22.5938 11.0352 21.9219 10.8727 21.0078 11.4279L19.8516 12.1321C19.8594 12.2269 19.8672 12.3149 19.8672 12.4165V17.8332C19.8672 17.9347 19.8516 18.0227 19.8516 18.1175L21.0078 18.8217C21.4922 19.1196 21.9141 19.2144 22.25 19.2144C22.5391 19.2144 22.7656 19.1467 22.9141 19.079C23.2344 18.9368 23.7734 18.5509 23.7734 17.5826V12.6738C23.7734 11.7056 23.2344 11.3196 22.9141 11.1774Z" fill="white"/>
<defs>
<linearGradient id="paint0_linear_736_3996" x1="-12" y1="2" x2="38.6667" y2="30" gradientUnits="userSpaceOnUse">
<stop stop-color="#0052D4"/>
<stop offset="0.5" stop-color="#4364F7"/>
<stop offset="1" stop-color="#6FB1FC"/>
</linearGradient>
</defs>
</svg>
