<svg width="30" height="30" viewBox="0 0 30 30" fill="none" xmlns="http://www.w3.org/2000/svg">
<rect width="30" height="30" rx="10" fill="url(#paint0_linear_798_4018)"/>
<path opacity="0.4" d="M20.3912 19.025L20.7162 21.6583C20.7995 22.35 20.0579 22.8333 19.4662 22.475L15.9745 20.4C15.5912 20.4 15.2162 20.375 14.8496 20.325C15.4662 19.6 15.8329 18.6833 15.8329 17.6917C15.8329 15.325 13.7829 13.4084 11.2495 13.4084C10.2829 13.4084 9.39122 13.6833 8.64955 14.1667C8.62455 13.9583 8.61621 13.75 8.61621 13.5333C8.61621 9.74166 11.9079 6.66667 15.9745 6.66667C20.0412 6.66667 23.3329 9.74166 23.3329 13.5333C23.3329 15.7833 22.1746 17.775 20.3912 19.025Z" fill="white"/>
<path d="M15.8337 17.6916C15.8337 18.6833 15.467 19.6 14.8503 20.325C14.0253 21.325 12.717 21.9667 11.2503 21.9667L9.07533 23.2583C8.70866 23.4833 8.24199 23.175 8.29199 22.75L8.50032 21.1083C7.38366 20.3333 6.66699 19.0917 6.66699 17.6916C6.66699 16.225 7.45033 14.9333 8.65033 14.1667C9.392 13.6833 10.2837 13.4084 11.2503 13.4084C13.7837 13.4084 15.8337 15.325 15.8337 17.6916Z" fill="white"/>
<defs>
<linearGradient id="paint0_linear_798_4018" x1="0" y1="15" x2="30" y2="15" gradientUnits="userSpaceOnUse">
<stop stop-color="#FFA751"/>
<stop offset="1" stop-color="#FFE259"/>
</linearGradient>
</defs>
</svg>
