<svg width="30" height="30" viewBox="0 0 30 30" fill="none" xmlns="http://www.w3.org/2000/svg">
<rect width="30" height="30" rx="10" fill="url(#paint0_linear_798_4012)"/>
<path opacity="0.4" d="M18.9752 20.8167H11.0252C10.6752 20.8167 10.3585 20.5917 10.2419 20.2667L6.7752 10.5583C6.5002 9.78335 7.38353 9.12501 8.04187 9.60001L11.3752 11.9833C11.8169 12.3 12.4502 12.1083 12.6419 11.6L14.2169 7.40001C14.4835 6.67501 15.5085 6.67501 15.7752 7.40001L17.3502 11.6C17.5419 12.1167 18.1669 12.3 18.6169 11.9833L21.9502 9.60001C22.6169 9.12501 23.4919 9.79168 23.2169 10.5583L19.7502 20.2667C19.6419 20.5917 19.3252 20.8167 18.9752 20.8167Z" fill="white"/>
<path d="M19.1663 23.3333H10.833C10.4913 23.3333 10.208 23.05 10.208 22.7083C10.208 22.3667 10.4913 22.0833 10.833 22.0833H19.1663C19.508 22.0833 19.7913 22.3667 19.7913 22.7083C19.7913 23.05 19.508 23.3333 19.1663 23.3333Z" fill="white"/>
<path d="M17.0837 17.2917H12.917C12.5753 17.2917 12.292 17.0083 12.292 16.6667C12.292 16.325 12.5753 16.0417 12.917 16.0417H17.0837C17.4253 16.0417 17.7087 16.325 17.7087 16.6667C17.7087 17.0083 17.4253 17.2917 17.0837 17.2917Z" fill="white"/>
<defs>
<linearGradient id="paint0_linear_798_4012" x1="-4.23077" y1="-11.5385" x2="37.3077" y2="30" gradientUnits="userSpaceOnUse">
<stop stop-color="#C84E89"/>
<stop offset="1" stop-color="#F15F79"/>
</linearGradient>
</defs>
</svg>
