<svg width="30" height="30" viewBox="0 0 30 30" fill="none" xmlns="http://www.w3.org/2000/svg">
<rect width="30" height="30" rx="10" fill="url(#paint0_linear_798_4015)"/>
<path opacity="0.6" d="M20.8253 13.725V15H7.66699V13.725C7.66699 11.7917 9.24199 10.2167 11.1753 10.2167H17.317C19.2503 10.2167 20.8253 11.7917 20.8253 13.725Z" fill="white"/>
<path opacity="0.4" d="M20.8253 15V19.825C20.8253 21.7583 19.2503 23.3333 17.317 23.3333H11.1753C9.24199 23.3333 7.66699 21.7583 7.66699 19.825V15H20.8253Z" fill="white"/>
<path d="M10.583 9.26667C10.2413 9.26667 9.95801 8.98333 9.95801 8.64167V7.18333C9.95801 6.84167 10.2413 6.55833 10.583 6.55833C10.9247 6.55833 11.208 6.84167 11.208 7.18333V8.64167C11.208 8.99167 10.9247 9.26667 10.583 9.26667Z" fill="white"/>
<path d="M13.917 9.26667C13.5753 9.26667 13.292 8.98333 13.292 8.64167V7.18333C13.292 6.84167 13.5753 6.55833 13.917 6.55833C14.2587 6.55833 14.542 6.84167 14.542 7.18333V8.64167C14.542 8.99167 14.2587 9.26667 13.917 9.26667Z" fill="white"/>
<path d="M17.25 9.26667C16.9083 9.26667 16.625 8.98333 16.625 8.64167V7.18333C16.625 6.84167 16.9083 6.55833 17.25 6.55833C17.5917 6.55833 17.875 6.84167 17.875 7.18333V8.64167C17.875 8.99167 17.5917 9.26667 17.25 9.26667Z" fill="white"/>
<path d="M24.0415 16.9333C24.0415 18.725 22.5915 20.175 20.7998 20.175V13.6833C22.5831 13.6833 24.0415 15.1417 24.0415 16.9333Z" fill="white"/>
<defs>
<linearGradient id="paint0_linear_798_4015" x1="0" y1="15" x2="30" y2="15" gradientUnits="userSpaceOnUse">
<stop stop-color="#4CB8C4"/>
<stop offset="1" stop-color="#3CD3AD"/>
</linearGradient>
</defs>
</svg>
