<svg width="30" height="30" viewBox="0 0 30 30" fill="none" xmlns="http://www.w3.org/2000/svg">
<rect width="30" height="30" rx="10" fill="url(#paint0_linear_798_4080)"/>
<path opacity="0.4" d="M15 20.25C17.8995 20.25 20.25 17.8995 20.25 15C20.25 12.1005 17.8995 9.75 15 9.75C12.1005 9.75 9.75 12.1005 9.75 15C9.75 17.8995 12.1005 20.25 15 20.25Z" fill="white"/>
<path d="M15 23.22C14.5875 23.22 14.25 22.9125 14.25 22.5V22.44C14.25 22.0275 14.5875 21.69 15 21.69C15.4125 21.69 15.75 22.0275 15.75 22.44C15.75 22.8525 15.4125 23.22 15 23.22ZM20.355 21.105C20.16 21.105 19.9725 21.03 19.8225 20.8875L19.725 20.79C19.4325 20.4975 19.4325 20.025 19.725 19.7325C20.0175 19.44 20.49 19.44 20.7825 19.7325L20.88 19.83C21.1725 20.1225 21.1725 20.595 20.88 20.8875C20.7375 21.03 20.55 21.105 20.355 21.105ZM9.645 21.105C9.45 21.105 9.2625 21.03 9.1125 20.8875C8.82 20.595 8.82 20.1225 9.1125 19.83L9.21 19.7325C9.5025 19.44 9.975 19.44 10.2675 19.7325C10.56 20.025 10.56 20.4975 10.2675 20.79L10.17 20.8875C10.0275 21.03 9.8325 21.105 9.645 21.105ZM22.5 15.75H22.44C22.0275 15.75 21.69 15.4125 21.69 15C21.69 14.5875 22.0275 14.25 22.44 14.25C22.8525 14.25 23.22 14.5875 23.22 15C23.22 15.4125 22.9125 15.75 22.5 15.75ZM7.56 15.75H7.5C7.0875 15.75 6.75 15.4125 6.75 15C6.75 14.5875 7.0875 14.25 7.5 14.25C7.9125 14.25 8.28 14.5875 8.28 15C8.28 15.4125 7.9725 15.75 7.56 15.75ZM20.2575 10.4925C20.0625 10.4925 19.875 10.4175 19.725 10.275C19.4325 9.9825 19.4325 9.51 19.725 9.2175L19.8225 9.12C20.115 8.8275 20.5875 8.8275 20.88 9.12C21.1725 9.4125 21.1725 9.885 20.88 10.1775L20.7825 10.275C20.64 10.4175 20.4525 10.4925 20.2575 10.4925ZM9.7425 10.4925C9.5475 10.4925 9.36 10.4175 9.21 10.275L9.1125 10.17C8.82 9.8775 8.82 9.405 9.1125 9.1125C9.405 8.82 9.8775 8.82 10.17 9.1125L10.2675 9.21C10.56 9.5025 10.56 9.975 10.2675 10.2675C10.125 10.4175 9.93 10.4925 9.7425 10.4925ZM15 8.28C14.5875 8.28 14.25 7.9725 14.25 7.56V7.5C14.25 7.0875 14.5875 6.75 15 6.75C15.4125 6.75 15.75 7.0875 15.75 7.5C15.75 7.9125 15.4125 8.28 15 8.28Z" fill="white"/>
<defs>
<linearGradient id="paint0_linear_798_4080" x1="0" y1="15" x2="30" y2="15" gradientUnits="userSpaceOnUse">
<stop stop-color="#BF5AE0"/>
<stop offset="1" stop-color="#A811DA"/>
</linearGradient>
</defs>
</svg>
