<svg width="30" height="31" viewBox="0 0 30 31" fill="none" xmlns="http://www.w3.org/2000/svg">
<rect y="0.970764" width="30" height="30" rx="10" fill="url(#paint0_linear_718_3641)"/>
<path opacity="0.4" d="M15 10.3874V23.7458C15.1417 23.7458 15.2917 23.7208 15.4083 23.6541L15.4417 23.6375C17.0417 22.7625 19.8333 21.8458 21.6416 21.6041L21.8833 21.5708C22.6833 21.4708 23.3333 20.7208 23.3333 19.9208V9.8541C23.3333 8.86244 22.525 8.11245 21.5334 8.19578C19.7834 8.33745 17.1334 9.2208 15.65 10.1458L15.4417 10.2708C15.3167 10.3458 15.1583 10.3874 15 10.3874Z" fill="white"/>
<path d="M6.6665 9.86241V19.9207C6.6665 20.7207 7.3165 21.4707 8.1165 21.5707L8.39151 21.6041C10.2082 21.8458 13.0082 22.7707 14.6082 23.6541C14.7165 23.7207 14.8498 23.7458 14.9998 23.7458V10.3874C14.8415 10.3874 14.6831 10.3457 14.5581 10.2707L14.4165 10.1791C12.9332 9.24574 10.2748 8.35408 8.52482 8.20408H8.47482C7.48316 8.12075 6.6665 8.86241 6.6665 9.86241Z" fill="white"/>
<defs>
<linearGradient id="paint0_linear_718_3641" x1="0" y1="15.9708" x2="30" y2="15.9708" gradientUnits="userSpaceOnUse">
<stop stop-color="#4CB8C4"/>
<stop offset="1" stop-color="#3CD3AD"/>
</linearGradient>
</defs>
</svg>
