<svg width="30" height="31" viewBox="0 0 30 31" fill="none" xmlns="http://www.w3.org/2000/svg">
<rect y="0.970764" width="30" height="30" rx="10" fill="url(#paint0_linear_718_3635)"/>
<path opacity="0.4" d="M14.9999 24.3041C18.9902 24.3041 22.2249 21.0694 22.2249 17.0791C22.2249 13.0888 18.9902 9.8541 14.9999 9.8541C11.0096 9.8541 7.7749 13.0888 7.7749 17.0791C7.7749 21.0694 11.0096 24.3041 14.9999 24.3041Z" fill="white"/>
<path d="M15 17.4291C14.6583 17.4291 14.375 17.1458 14.375 16.8041V12.6374C14.375 12.2958 14.6583 12.0124 15 12.0124C15.3417 12.0124 15.625 12.2958 15.625 12.6374V16.8041C15.625 17.1458 15.3417 17.4291 15 17.4291Z" fill="white"/>
<path d="M17.4084 8.84575H12.5917C12.2584 8.84575 11.9917 8.57909 11.9917 8.24575C11.9917 7.91242 12.2584 7.63742 12.5917 7.63742H17.4084C17.7417 7.63742 18.0084 7.90409 18.0084 8.23742C18.0084 8.57075 17.7417 8.84575 17.4084 8.84575Z" fill="white"/>
<defs>
<linearGradient id="paint0_linear_718_3635" x1="-12" y1="2.97076" x2="38.6667" y2="30.9708" gradientUnits="userSpaceOnUse">
<stop stop-color="#0052D4"/>
<stop offset="0.5" stop-color="#4364F7"/>
<stop offset="1" stop-color="#6FB1FC"/>
</linearGradient>
</defs>
</svg>
