<svg width="30" height="31" viewBox="0 0 30 31" fill="none" xmlns="http://www.w3.org/2000/svg">
<rect y="0.970764" width="30" height="30" rx="10" fill="url(#paint0_linear_718_3638)"/>
<path d="M19.3537 8.23411V6.80411C19.3537 6.42827 19.0421 6.11661 18.6662 6.11661C18.2904 6.11661 17.9787 6.42827 17.9787 6.80411V8.17911H12.0204V6.80411C12.0204 6.42827 11.7087 6.11661 11.3329 6.11661C10.9571 6.11661 10.6454 6.42827 10.6454 6.80411V8.23411C8.17039 8.46327 6.96956 9.93911 6.78623 12.1299C6.76789 12.3958 6.98789 12.6158 7.24456 12.6158H22.7546C23.0204 12.6158 23.2404 12.3866 23.2129 12.1299C23.0296 9.93911 21.8287 8.46327 19.3537 8.23411Z" fill="white"/>
<path opacity="0.4" d="M22.3328 13.9908C22.837 13.9908 23.2495 14.4033 23.2495 14.9074V20.5541C23.2495 23.3041 21.8745 25.1374 18.6662 25.1374H11.3328C8.12451 25.1374 6.74951 23.3041 6.74951 20.5541V14.9074C6.74951 14.4033 7.16201 13.9908 7.66618 13.9908H22.3328Z" fill="white"/>
<path d="M11.7912 18.7207C11.5528 18.7207 11.3145 18.6199 11.1403 18.4549C10.9753 18.2807 10.8745 18.0424 10.8745 17.8041C10.8745 17.5657 10.9753 17.3274 11.1403 17.1533C11.397 16.8966 11.8003 16.8141 12.1395 16.9607C12.2587 17.0066 12.3595 17.0708 12.442 17.1533C12.607 17.3274 12.7078 17.5657 12.7078 17.8041C12.7078 18.0424 12.607 18.2807 12.442 18.4549C12.2678 18.6199 12.0295 18.7207 11.7912 18.7207Z" fill="white"/>
<path d="M14.9997 18.7207C14.7613 18.7207 14.523 18.6199 14.3488 18.4549C14.1838 18.2807 14.083 18.0424 14.083 17.8041C14.083 17.5657 14.1838 17.3274 14.3488 17.1533C14.4313 17.0708 14.5322 17.0066 14.6513 16.9607C14.9905 16.8141 15.3938 16.8966 15.6505 17.1533C15.8155 17.3274 15.9163 17.5657 15.9163 17.8041C15.9163 18.0424 15.8155 18.2807 15.6505 18.4549C15.6047 18.4916 15.5588 18.5282 15.513 18.5649C15.458 18.6016 15.403 18.6291 15.348 18.6474C15.293 18.6749 15.238 18.6933 15.183 18.7024C15.1188 18.7116 15.0638 18.7207 14.9997 18.7207Z" fill="white"/>
<path d="M18.2077 18.7208C17.9693 18.7208 17.731 18.6199 17.5568 18.4549C17.3918 18.2808 17.291 18.0424 17.291 17.8041C17.291 17.5658 17.3918 17.3274 17.5568 17.1533C17.6485 17.0708 17.7402 17.0066 17.8593 16.9608C18.0243 16.8874 18.2077 16.8691 18.391 16.9058C18.446 16.9149 18.501 16.9333 18.556 16.9608C18.611 16.9791 18.666 17.0066 18.721 17.0433C18.7668 17.0799 18.8127 17.1166 18.8585 17.1533C19.0235 17.3274 19.1243 17.5658 19.1243 17.8041C19.1243 18.0424 19.0235 18.2808 18.8585 18.4549C18.8127 18.4916 18.7668 18.5283 18.721 18.5649C18.666 18.6016 18.611 18.6291 18.556 18.6474C18.501 18.6749 18.446 18.6933 18.391 18.7024C18.3268 18.7116 18.2627 18.7208 18.2077 18.7208Z" fill="white"/>
<path d="M11.7912 21.9291C11.672 21.9291 11.5528 21.9016 11.4428 21.8558C11.3237 21.81 11.232 21.7458 11.1403 21.6633C10.9753 21.4891 10.8745 21.2508 10.8745 21.0124C10.8745 20.7741 10.9753 20.5358 11.1403 20.3616C11.232 20.2791 11.3237 20.2149 11.4428 20.1691C11.6078 20.0958 11.7912 20.0774 11.9745 20.1141C12.0295 20.1233 12.0845 20.1416 12.1395 20.1691C12.1945 20.1874 12.2495 20.215 12.3045 20.2516C12.3503 20.2883 12.3962 20.3249 12.442 20.3616C12.607 20.5358 12.7078 20.7741 12.7078 21.0124C12.7078 21.2508 12.607 21.4891 12.442 21.6633C12.3962 21.6999 12.3503 21.7458 12.3045 21.7733C12.2495 21.8099 12.1945 21.8375 12.1395 21.8558C12.0845 21.8833 12.0295 21.9016 11.9745 21.9108C11.9103 21.92 11.8553 21.9291 11.7912 21.9291Z" fill="white"/>
<path d="M14.9997 21.9291C14.7613 21.9291 14.523 21.8283 14.3488 21.6633C14.1838 21.4891 14.083 21.2508 14.083 21.0124C14.083 20.7741 14.1838 20.5358 14.3488 20.3616C14.688 20.0224 15.3113 20.0224 15.6505 20.3616C15.8155 20.5358 15.9163 20.7741 15.9163 21.0124C15.9163 21.2508 15.8155 21.4891 15.6505 21.6633C15.4763 21.8283 15.238 21.9291 14.9997 21.9291Z" fill="white"/>
<path d="M18.2077 21.9291C17.9693 21.9291 17.731 21.8283 17.5568 21.6633C17.3918 21.4891 17.291 21.2508 17.291 21.0124C17.291 20.7741 17.3918 20.5358 17.5568 20.3616C17.896 20.0224 18.5193 20.0224 18.8585 20.3616C19.0235 20.5358 19.1243 20.7741 19.1243 21.0124C19.1243 21.2508 19.0235 21.4891 18.8585 21.6633C18.6843 21.8283 18.446 21.9291 18.2077 21.9291Z" fill="white"/>
<defs>
<linearGradient id="paint0_linear_718_3638" x1="-4.23077" y1="-10.5677" x2="37.3077" y2="30.9708" gradientUnits="userSpaceOnUse">
<stop stop-color="#C84E89"/>
<stop offset="1" stop-color="#F15F79"/>
</linearGradient>
</defs>
</svg>
