<svg width="30" height="30" viewBox="0 0 30 30" fill="none" xmlns="http://www.w3.org/2000/svg">
<circle cx="15" cy="15" r="15" fill="url(#paint0_linear_502_2709)"/>
<path opacity="0.4" d="M13 8.33325C11.2533 8.33325 9.83334 9.75325 9.83334 11.4999C9.83334 13.2133 11.1733 14.5999 12.92 14.6599C12.9733 14.6533 13.0267 14.6533 13.0667 14.6599C13.08 14.6599 13.0867 14.6599 13.1 14.6599C13.1067 14.6599 13.1067 14.6599 13.1133 14.6599C14.82 14.5999 16.16 13.2133 16.1667 11.4999C16.1667 9.75325 14.7467 8.33325 13 8.33325Z" fill="white"/>
<path d="M16.3867 16.4334C14.5267 15.1934 11.4933 15.1934 9.62 16.4334C8.77334 17.0001 8.30667 17.7668 8.30667 18.5868C8.30667 19.4068 8.77334 20.1668 9.61334 20.7268C10.5467 21.3534 11.7733 21.6668 13 21.6668C14.2267 21.6668 15.4533 21.3534 16.3867 20.7268C17.2267 20.1601 17.6933 19.4001 17.6933 18.5734C17.6867 17.7534 17.2267 16.9934 16.3867 16.4334Z" fill="white"/>
<path opacity="0.4" d="M20.3267 11.8933C20.4333 13.1867 19.5133 14.32 18.24 14.4733C18.2333 14.4733 18.2333 14.4733 18.2267 14.4733H18.2067C18.1667 14.4733 18.1267 14.4733 18.0933 14.4867C17.4467 14.52 16.8533 14.3133 16.4067 13.9333C17.0933 13.32 17.4867 12.4 17.4067 11.4C17.36 10.86 17.1733 10.3667 16.8933 9.94665C17.1467 9.81999 17.44 9.73999 17.74 9.71332C19.0467 9.59999 20.2133 10.5733 20.3267 11.8933Z" fill="white"/>
<path d="M21.66 18.0599C21.6067 18.7066 21.1933 19.2666 20.5 19.6466C19.8333 20.0133 18.9933 20.1866 18.16 20.1666C18.64 19.7333 18.92 19.1933 18.9733 18.6199C19.04 17.7933 18.6467 16.9999 17.86 16.3666C17.4133 16.0133 16.8933 15.7333 16.3267 15.5266C17.8 15.0999 19.6533 15.3866 20.7933 16.3066C21.4067 16.7999 21.72 17.4199 21.66 18.0599Z" fill="white"/>
<defs>
<linearGradient id="paint0_linear_502_2709" x1="0" y1="15" x2="30" y2="15" gradientUnits="userSpaceOnUse">
<stop stop-color="#4CB8C4"/>
<stop offset="1" stop-color="#3CD3AD"/>
</linearGradient>
</defs>
</svg>
