<svg width="30" height="30" viewBox="0 0 30 30" fill="none" xmlns="http://www.w3.org/2000/svg">
<circle cx="15" cy="15" r="15" fill="url(#paint0_linear_502_2706)"/>
<path opacity="0.6" d="M14.5 10.7543V22.1089C14.6204 22.1089 14.7479 22.0876 14.8471 22.0309L14.8754 22.0168C16.2354 21.2731 18.6083 20.4939 20.1454 20.2885L20.3508 20.2601C21.0308 20.1751 21.5833 19.5376 21.5833 18.8576V10.3009C21.5833 9.45802 20.8963 8.82053 20.0534 8.89136C18.5659 9.01178 16.3134 9.76263 15.0525 10.5489L14.8754 10.6551C14.7692 10.7189 14.6346 10.7543 14.5 10.7543Z" fill="white"/>
<path d="M7.41672 10.3076V18.8572C7.41672 19.5372 7.96921 20.1747 8.64921 20.2597L8.88297 20.288C10.4271 20.4934 12.8072 21.2797 14.1672 22.0305C14.2592 22.0872 14.3726 22.1084 14.5001 22.1084V10.7538C14.3655 10.7538 14.2309 10.7184 14.1246 10.6547L14.0042 10.5768C12.7434 9.78342 10.4838 9.02551 8.99629 8.89801H8.95379C8.11087 8.82717 7.41672 9.45758 7.41672 10.3076Z" fill="white"/>
<defs>
<linearGradient id="paint0_linear_502_2706" x1="-4.23077" y1="-11.5385" x2="37.3077" y2="30" gradientUnits="userSpaceOnUse">
<stop stop-color="#C84E89"/>
<stop offset="1" stop-color="#F15F79"/>
</linearGradient>
</defs>
</svg>
