<svg width="30" height="30" viewBox="0 0 30 30" fill="none" xmlns="http://www.w3.org/2000/svg">
<circle cx="15" cy="15" r="15" fill="url(#paint0_linear_502_2712)"/>
<path opacity="0.4" d="M12.66 9.20768C12.06 6.67922 8.15249 6.67191 7.55249 9.20768C7.19999 10.6911 8.16749 11.9481 9.00749 12.73C9.62249 13.2927 10.59 13.2927 11.205 12.73C12.045 11.9481 13.005 10.6911 12.66 9.20768ZM10.1325 10.3769C9.71999 10.3769 9.38249 10.0481 9.38249 9.64614C9.38249 9.24422 9.71249 8.91537 10.125 8.91537H10.1325C10.5525 8.91537 10.8825 9.24422 10.8825 9.64614C10.8825 10.0481 10.5525 10.3769 10.1325 10.3769Z" fill="white"/>
<path d="M10.8825 9.6463C10.8825 10.0482 10.5525 10.3771 10.1325 10.3771C9.72001 10.3771 9.38251 10.0482 9.38251 9.6463C9.38251 9.24437 9.71251 8.91553 10.125 8.91553H10.1325C10.5525 8.91553 10.8825 9.24437 10.8825 9.6463Z" fill="white"/>
<path opacity="0.4" d="M22.4325 17.977C21.8325 15.4485 17.91 15.4412 17.3025 17.977C16.95 19.4604 17.9175 20.7174 18.765 21.4993C19.38 22.062 20.355 22.062 20.97 21.4993C21.8175 20.7174 22.785 19.4604 22.4325 17.977ZM19.8975 19.1462C19.485 19.1462 19.1475 18.8174 19.1475 18.4154C19.1475 18.0135 19.4775 17.6847 19.89 17.6847H19.8975C20.31 17.6847 20.6475 18.0135 20.6475 18.4154C20.6475 18.8174 20.31 19.1462 19.8975 19.1462Z" fill="white"/>
<path d="M20.6475 18.4153C20.6475 18.8173 20.31 19.1461 19.8975 19.1461C19.485 19.1461 19.1475 18.8173 19.1475 18.4153C19.1475 18.0134 19.4775 17.6846 19.89 17.6846H19.8975C20.31 17.6846 20.6475 18.0134 20.6475 18.4153Z" fill="white"/>
<path d="M15 20.2788H12.99C12.12 20.2788 11.3625 19.7673 11.0625 18.9781C10.755 18.1888 10.98 17.3192 11.6325 16.7565L17.625 11.6484C17.985 11.3415 17.9925 10.925 17.8875 10.64C17.775 10.355 17.49 10.0481 17.01 10.0481H15C14.6925 10.0481 14.4375 9.7996 14.4375 9.49998C14.4375 9.20037 14.6925 8.9519 15 8.9519H17.01C17.88 8.9519 18.6375 9.46344 18.9375 10.2527C19.245 11.0419 19.02 11.9115 18.3675 12.4742L12.375 17.5823C12.015 17.8892 12.0075 18.3058 12.1125 18.5908C12.225 18.8758 12.51 19.1827 12.99 19.1827H15C15.3075 19.1827 15.5625 19.4311 15.5625 19.7308C15.5625 20.0304 15.3075 20.2788 15 20.2788Z" fill="white"/>
<defs>
<linearGradient id="paint0_linear_502_2712" x1="-12" y1="2" x2="38.6667" y2="30" gradientUnits="userSpaceOnUse">
<stop stop-color="#0052D4"/>
<stop offset="0.5" stop-color="#4364F7"/>
<stop offset="1" stop-color="#6FB1FC"/>
</linearGradient>
</defs>
</svg>
