<svg width="36" height="36" viewBox="0 0 36 36" fill="none" xmlns="http://www.w3.org/2000/svg">
<rect width="36" height="36" rx="10" fill="url(#paint0_linear_658_4278)"/>
<path d="M26.9063 12.8784V17.4206C26.9063 18.5517 26.5322 19.5047 25.8642 20.1637C25.2052 20.8317 24.2522 21.2057 23.1211 21.2057V22.8178C23.1211 23.4234 22.4442 23.7886 21.9455 23.4501L21.0816 22.8801C21.1617 22.604 21.1973 22.3012 21.1973 21.9806V18.3558C21.1973 16.5389 19.9861 15.3276 18.1692 15.3276H12.1219C11.9972 15.3276 11.8814 15.3366 11.7656 15.3455V12.8784C11.7656 10.6073 13.2797 9.09326 15.5508 9.09326H23.1211C25.3922 9.09326 26.9063 10.6073 26.9063 12.8784Z" fill="white" fill-opacity="0.5"/>
<path d="M21.1973 18.3563V21.9811C21.1973 22.3017 21.1617 22.6045 21.0816 22.8806C20.752 24.1898 19.6655 25.0092 18.1692 25.0092H15.7467L13.057 26.7994C12.6562 27.0755 12.1219 26.7816 12.1219 26.3006V25.0092C11.2134 25.0092 10.4564 24.7064 9.93094 24.1809C9.39656 23.6466 9.09375 22.8895 9.09375 21.9811V18.3563C9.09375 16.6641 10.1447 15.4974 11.7656 15.346C11.8814 15.337 11.9972 15.3281 12.1219 15.3281H18.1692C19.9861 15.3281 21.1973 16.5394 21.1973 18.3563Z" fill="white"/>
<defs>
<linearGradient id="paint0_linear_658_4278" x1="0" y1="18" x2="36" y2="18" gradientUnits="userSpaceOnUse">
<stop stop-color="#FFA751"/>
<stop offset="1" stop-color="#FFE259"/>
</linearGradient>
</defs>
</svg>
