<svg width="37" height="37" viewBox="0 0 37 37" fill="none" xmlns="http://www.w3.org/2000/svg">
<rect x="0.480469" y="0.125488" width="36" height="36" rx="10" fill="url(#paint0_linear_658_4275)"/>
<path d="M27.2604 17.1778V22.144C27.2604 24.7695 25.1244 26.9054 22.4989 26.9054H14.2219C11.5964 26.9054 9.46045 24.7695 9.46045 22.144V15.7271H27.029C27.1625 16.1276 27.2337 16.537 27.2515 16.9731C27.2604 17.0354 27.2604 17.1155 27.2604 17.1778Z" fill="white"/>
<path opacity="0.4" d="M27.029 15.7271H9.46045V13.0393C9.46045 10.8677 11.2226 9.10547 13.3942 9.10547H15.4679C16.9186 9.10547 17.3725 9.57717 17.951 10.3515L19.197 12.0069C19.4729 12.3718 19.5085 12.4252 20.0247 12.4252H22.5078C24.6171 12.4163 26.4149 13.8047 27.029 15.7271Z" fill="white"/>
<defs>
<linearGradient id="paint0_linear_658_4275" x1="0.480469" y1="18.1255" x2="36.4805" y2="18.1255" gradientUnits="userSpaceOnUse">
<stop stop-color="#4CB8C4"/>
<stop offset="1" stop-color="#3CD3AD"/>
</linearGradient>
</defs>
</svg>
