<svg width="36" height="36" viewBox="0 0 36 36" fill="none" xmlns="http://www.w3.org/2000/svg">
<rect width="36" height="36" rx="10" fill="url(#paint0_linear_658_4269)"/>
<path opacity="0.4" d="M26.4687 16.1267C26.1216 15.6283 25.5075 15.3435 24.8044 15.3435H21.1554C20.9151 15.3435 20.6926 15.2456 20.5413 15.0676C20.3811 14.8896 20.3188 14.6404 20.3544 14.3823L20.8083 11.4631C21.0041 10.5909 20.4256 9.61194 19.5534 9.31824C18.7435 9.01564 17.7912 9.42504 17.4085 10.0035L13.6527 15.5838L13.5459 15.7618V23.6294L13.6794 23.7629L16.5007 25.9434C16.8745 26.3172 17.72 26.5219 18.3163 26.5219H21.7873C22.9799 26.5219 24.1814 25.623 24.4484 24.5283L26.6378 17.8622C26.8692 17.2303 26.8069 16.6162 26.4687 16.1267Z" fill="white"/>
<path d="M11.8369 12.8784H10.9202C9.54068 12.8784 8.97998 13.4124 8.97998 14.7296V23.683C8.97998 25.0002 9.54068 25.5342 10.9202 25.5342H11.8369C13.2164 25.5342 13.7771 25.0002 13.7771 23.683V14.7296C13.7771 13.4124 13.2164 12.8784 11.8369 12.8784Z" fill="white"/>
<defs>
<linearGradient id="paint0_linear_658_4269" x1="-5.07692" y1="-13.8462" x2="44.7692" y2="36" gradientUnits="userSpaceOnUse">
<stop stop-color="#C84E89"/>
<stop offset="1" stop-color="#F15F79"/>
</linearGradient>
</defs>
</svg>
