<svg width="37" height="36" viewBox="0 0 37 36" fill="none" xmlns="http://www.w3.org/2000/svg">
<rect x="0.480469" width="36" height="36" rx="10" fill="url(#paint0_linear_658_4272)"/>
<path opacity="0.4" d="M22.1344 10.4487H14.5872C12.3889 10.4487 10.6089 12.2376 10.6089 14.427V22.8019C10.6089 24.9913 12.3978 26.7802 14.5872 26.7802H22.1255C24.3238 26.7802 26.1038 24.9913 26.1038 22.8019V14.427C26.1127 12.2287 24.3238 10.4487 22.1344 10.4487Z" fill="white"/>
<path d="M20.452 8.97998H16.269C15.3434 8.97998 14.5869 9.72758 14.5869 10.6532V11.4898C14.5869 12.4154 15.3345 13.163 16.2601 13.163H20.452C21.3776 13.163 22.1252 12.4154 22.1252 11.4898V10.6532C22.1341 9.72758 21.3776 8.97998 20.452 8.97998Z" fill="white"/>
<path d="M17.3015 22.2858C17.1324 22.2858 16.9633 22.2235 16.8298 22.09L15.4948 20.755C15.2367 20.4969 15.2367 20.0697 15.4948 19.8116C15.7529 19.5535 16.1801 19.5535 16.4382 19.8116L17.3015 20.6749L20.3898 17.5866C20.6479 17.3285 21.0751 17.3285 21.3332 17.5866C21.5913 17.8447 21.5913 18.2719 21.3332 18.53L17.7732 22.09C17.6486 22.2235 17.4706 22.2858 17.3015 22.2858Z" fill="white"/>
<defs>
<linearGradient id="paint0_linear_658_4272" x1="0.480469" y1="18" x2="36.4805" y2="18" gradientUnits="userSpaceOnUse">
<stop stop-color="#BF5AE0"/>
<stop offset="1" stop-color="#A811DA"/>
</linearGradient>
</defs>
</svg>
