<svg width="30" height="30" viewBox="0 0 30 30" fill="none" xmlns="http://www.w3.org/2000/svg">
<circle cx="15" cy="15" r="15" fill="url(#paint0_linear_458_2880)"/>
<path opacity="0.6" d="M15.5 10.7543V22.1089C15.6204 22.1089 15.7479 22.0876 15.8471 22.0309L15.8754 22.0168C17.2354 21.2731 19.6083 20.4939 21.1454 20.2885L21.3508 20.2601C22.0308 20.1751 22.5833 19.5376 22.5833 18.8576V10.3009C22.5833 9.45802 21.8963 8.82053 21.0534 8.89136C19.5659 9.01178 17.3134 9.76263 16.0525 10.5489L15.8754 10.6551C15.7692 10.7189 15.6346 10.7543 15.5 10.7543Z" fill="white"/>
<path d="M8.41672 10.3076V18.8572C8.41672 19.5372 8.96921 20.1747 9.64921 20.2597L9.88297 20.288C11.4271 20.4934 13.8072 21.2797 15.1672 22.0305C15.2592 22.0872 15.3726 22.1084 15.5001 22.1084V10.7538C15.3655 10.7538 15.2309 10.7184 15.1246 10.6547L15.0042 10.5768C13.7434 9.78342 11.4838 9.02551 9.99629 8.89801H9.95379C9.11087 8.82717 8.41672 9.45758 8.41672 10.3076Z" fill="white"/>
<defs>
<linearGradient id="paint0_linear_458_2880" x1="-4.23077" y1="-11.5385" x2="37.3077" y2="30" gradientUnits="userSpaceOnUse">
<stop stop-color="#C84E89"/>
<stop offset="1" stop-color="#F15F79"/>
</linearGradient>
</defs>
</svg>
