<svg width="30" height="30" viewBox="0 0 30 30" fill="none" xmlns="http://www.w3.org/2000/svg">
<circle cx="15" cy="15" r="15" fill="url(#paint0_linear_476_2705)"/>
<path opacity="0.6" d="M15.6576 9.00635H11.7103C9.46025 9.00635 8.58525 9.85891 8.58525 12.0512V17.1794C8.58525 18.6538 9.40762 20.2243 11.7103 20.2243H15.6576C17.9076 20.2243 18.7826 19.3717 18.7826 17.1794V12.0512C18.7826 9.85891 17.9076 9.00635 15.6576 9.00635Z" fill="white"/>
<path d="M14.6709 14.2181C15.354 14.2181 15.9077 13.6786 15.9077 13.013C15.9077 12.3474 15.354 11.8079 14.6709 11.8079C13.9878 11.8079 13.434 12.3474 13.434 13.013C13.434 13.6786 13.9878 14.2181 14.6709 14.2181Z" fill="white"/>
<path d="M21.3484 10.8781C21.0787 10.7434 20.5129 10.5896 19.7432 11.1152L18.7695 11.7819C18.776 11.8717 18.7826 11.955 18.7826 12.0511V17.1793C18.7826 17.2755 18.7695 17.3588 18.7695 17.4486L19.7432 18.1152C20.151 18.3973 20.5063 18.487 20.7892 18.487C21.0326 18.487 21.2234 18.4229 21.3484 18.3588C21.6182 18.2242 22.0721 17.8588 22.0721 16.9422V12.2947C22.0721 11.3781 21.6182 11.0127 21.3484 10.8781Z" fill="white"/>
<defs>
<linearGradient id="paint0_linear_476_2705" x1="-12" y1="2" x2="38.6667" y2="30" gradientUnits="userSpaceOnUse">
<stop stop-color="#0052D4"/>
<stop offset="0.5" stop-color="#4364F7"/>
<stop offset="1" stop-color="#6FB1FC"/>
</linearGradient>
</defs>
</svg>
