<svg width="30" height="30" viewBox="0 0 30 30" fill="none" xmlns="http://www.w3.org/2000/svg">
<circle cx="15" cy="15" r="15" fill="url(#paint0_linear_458_2885)"/>
<path opacity="0.4" d="M18.4171 12.5038C18.3675 12.4968 18.3179 12.4968 18.2683 12.5038C17.1704 12.4684 16.2992 11.5688 16.2992 10.4638C16.2992 9.33758 17.2129 8.41675 18.3462 8.41675C19.4725 8.41675 20.3933 9.3305 20.3933 10.4638C20.3862 11.5688 19.515 12.4684 18.4171 12.5038Z" fill="white"/>
<path opacity="0.4" d="M20.7262 17.4125C19.9329 17.9438 18.8208 18.1421 17.7938 18.0075C18.0629 17.4267 18.2046 16.7821 18.2117 16.1021C18.2117 15.3938 18.0558 14.7209 17.7583 14.133C18.8067 13.9913 19.9187 14.1896 20.7192 14.7209C21.8383 15.4575 21.8383 16.6688 20.7262 17.4125Z" fill="white"/>
<path opacity="0.4" d="M10.5617 12.5038C10.6112 12.4968 10.6608 12.4968 10.7104 12.5038C11.8083 12.4684 12.6796 11.5688 12.6796 10.4638C12.6796 9.33758 11.7658 8.41675 10.6325 8.41675C9.50625 8.41675 8.58542 9.3305 8.58542 10.4638C8.5925 11.5688 9.46375 12.4684 10.5617 12.5038Z" fill="white"/>
<path opacity="0.4" d="M10.6396 16.102C10.6396 16.7891 10.7883 17.4408 11.0575 18.0287C10.0588 18.1349 9.01751 17.9224 8.25251 17.4195C7.13334 16.6758 7.13334 15.4645 8.25251 14.7208C9.01042 14.2108 10.08 14.0053 11.0858 14.1187C10.7954 14.7137 10.6396 15.3866 10.6396 16.102Z" fill="white"/>
<path d="M14.585 18.2412C14.5283 18.2342 14.4646 18.2342 14.4008 18.2412C13.0975 18.1987 12.0562 17.1292 12.0562 15.8117C12.0562 14.4658 13.14 13.375 14.4929 13.375C15.8387 13.375 16.9296 14.4658 16.9296 15.8117C16.9296 17.1292 15.8954 18.1987 14.585 18.2412Z" fill="white"/>
<path d="M12.2829 19.7076C11.2133 20.423 11.2133 21.5989 12.2829 22.3072C13.5012 23.1218 15.4988 23.1218 16.7171 22.3072C17.7867 21.5918 17.7867 20.416 16.7171 19.7076C15.5058 18.893 13.5083 18.893 12.2829 19.7076Z" fill="white"/>
<defs>
<linearGradient id="paint0_linear_458_2885" x1="0" y1="15" x2="30" y2="15" gradientUnits="userSpaceOnUse">
<stop stop-color="#4CB8C4"/>
<stop offset="1" stop-color="#3CD3AD"/>
</linearGradient>
</defs>
</svg>
