<svg width="30" height="30" viewBox="0 0 30 30" fill="none" xmlns="http://www.w3.org/2000/svg">
<circle cx="15" cy="15" r="15" fill="url(#paint0_linear_476_2714)"/>
<path opacity="0.4" d="M14.8593 8.41675C12.925 8.41675 11.3525 9.9255 11.3525 11.7813C11.3525 13.6017 12.8364 15.0751 14.7707 15.1388C14.8298 15.1317 14.8889 15.1317 14.9332 15.1388C14.9479 15.1388 14.9553 15.1388 14.9701 15.1388C14.9775 15.1388 14.9775 15.1388 14.9848 15.1388C16.8748 15.0751 18.3588 13.6017 18.3661 11.7813C18.3661 9.9255 16.7936 8.41675 14.8593 8.41675Z" fill="white"/>
<path d="M18.6098 17.023C16.55 15.7055 13.1908 15.7055 11.1163 17.023C10.1786 17.6251 9.66185 18.4397 9.66185 19.311C9.66185 20.1822 10.1786 20.9897 11.1089 21.5847C12.1425 22.2505 13.5009 22.5835 14.8593 22.5835C16.2178 22.5835 17.5762 22.2505 18.6098 21.5847C19.54 20.9826 20.0568 20.1751 20.0568 19.2968C20.0494 18.4255 19.54 17.618 18.6098 17.023Z" fill="white"/>
<defs>
<linearGradient id="paint0_linear_476_2714" x1="0" y1="15" x2="30" y2="15" gradientUnits="userSpaceOnUse">
<stop stop-color="#FFA751"/>
<stop offset="1" stop-color="#FFE259"/>
</linearGradient>
</defs>
</svg>
