<svg width="36" height="36" viewBox="0 0 36 36" fill="none" xmlns="http://www.w3.org/2000/svg">
<rect width="36" height="36" rx="10" fill="url(#paint0_linear_720_3823)"/>
<path opacity="0.4" d="M22.24 9.6499H13.76C11.29 9.6499 9.29004 11.6599 9.29004 14.1199V23.5299C9.29004 25.9899 11.3 27.9999 13.76 27.9999H22.23C24.7 27.9999 26.7 25.9899 26.7 23.5299V14.1199C26.71 11.6499 24.7 9.6499 22.24 9.6499Z" fill="white"/>
<path d="M20.3498 8H15.6498C14.6098 8 13.7598 8.84 13.7598 9.88V10.82C13.7598 11.86 14.5998 12.7 15.6398 12.7H20.3498C21.3898 12.7 22.2298 11.86 22.2298 10.82V9.88C22.2398 8.84 21.3898 8 20.3498 8Z" fill="white"/>
<path d="M20.5299 21.6199L19.0799 20.1699L20.4799 18.7699C20.7699 18.4799 20.7699 17.9999 20.4799 17.7099C20.1899 17.4199 19.7099 17.4199 19.4199 17.7099L18.0199 19.1099L16.5699 17.6599C16.2799 17.3699 15.7999 17.3699 15.5099 17.6599C15.2199 17.9499 15.2199 18.4299 15.5099 18.7199L16.9599 20.1699L15.4699 21.6599C15.1799 21.9499 15.1799 22.4299 15.4699 22.7199C15.6199 22.8699 15.8099 22.9399 15.9999 22.9399C16.1899 22.9399 16.3799 22.8699 16.5299 22.7199L18.0199 21.2299L19.4699 22.6799C19.6199 22.8299 19.8099 22.8999 19.9999 22.8999C20.1899 22.8999 20.3799 22.8299 20.5299 22.6799C20.8199 22.3899 20.8199 21.9199 20.5299 21.6199Z" fill="white"/>
<defs>
<linearGradient id="paint0_linear_720_3823" x1="-5.07692" y1="-13.8462" x2="44.7692" y2="36" gradientUnits="userSpaceOnUse">
<stop stop-color="#C84E89"/>
<stop offset="1" stop-color="#F15F79"/>
</linearGradient>
</defs>
</svg>
