<svg width="36" height="36" viewBox="0 0 36 36" fill="none" xmlns="http://www.w3.org/2000/svg">
<rect width="36" height="36" rx="10" fill="url(#paint0_linear_720_3820)"/>
<path d="M15.2005 13.2879C14.852 13.2879 14.563 12.9989 14.563 12.6504V10.1004C14.563 9.75189 14.852 9.46289 15.2005 9.46289C15.549 9.46289 15.838 9.75189 15.838 10.1004V12.6504C15.838 12.9989 15.549 13.2879 15.2005 13.2879Z" fill="white"/>
<path d="M22.0003 13.2879C21.6518 13.2879 21.3628 12.9989 21.3628 12.6504V10.1004C21.3628 9.75189 21.6518 9.46289 22.0003 9.46289C22.3488 9.46289 22.6378 9.75189 22.6378 10.1004V12.6504C22.6378 12.9989 22.3488 13.2879 22.0003 13.2879Z" fill="white"/>
<path opacity="0.4" d="M26.2502 15.6255V22.8505C26.2502 25.4005 24.9752 27.1005 22.0002 27.1005H15.2002C12.2252 27.1005 10.9502 25.4005 10.9502 22.8505V15.6255C10.9502 13.0755 12.2252 11.3755 15.2002 11.3755H22.0002C24.9752 11.3755 26.2502 13.0755 26.2502 15.6255Z" fill="white"/>
<path d="M22.0005 18.3878H15.2005C14.852 18.3878 14.563 18.0988 14.563 17.7503C14.563 17.4018 14.852 17.1128 15.2005 17.1128H22.0005C22.349 17.1128 22.638 17.4018 22.638 17.7503C22.638 18.0988 22.349 18.3878 22.0005 18.3878Z" fill="white"/>
<path d="M18.6005 22.6378H15.2005C14.852 22.6378 14.563 22.3488 14.563 22.0003C14.563 21.6518 14.852 21.3628 15.2005 21.3628H18.6005C18.949 21.3628 19.238 21.6518 19.238 22.0003C19.238 22.3488 18.949 22.6378 18.6005 22.6378Z" fill="white"/>
<defs>
<linearGradient id="paint0_linear_720_3820" x1="-14.4" y1="2.4" x2="46.4" y2="36" gradientUnits="userSpaceOnUse">
<stop stop-color="#0052D4"/>
<stop offset="0.5" stop-color="#4364F7"/>
<stop offset="1" stop-color="#6FB1FC"/>
</linearGradient>
</defs>
</svg>
