<svg width="18" height="20" viewBox="0 0 18 20" fill="none" xmlns="http://www.w3.org/2000/svg">
<path fill-rule="evenodd" clip-rule="evenodd" d="M12.5771 0C12.9546 0 13.2609 0.306369 13.2609 0.683859L13.2614 1.4569C14.5927 1.54818 15.6984 2.00421 16.481 2.78841C17.3354 3.64643 17.7849 4.88011 17.7804 6.35998V14.6785C17.7804 17.7166 15.851 19.6041 12.7462 19.6041H5.03412C1.9294 19.6041 0 17.6902 0 14.6092V6.35816C0 3.49251 1.72064 1.65306 4.52686 1.45722L4.52742 0.683859C4.52742 0.306369 4.83379 0 5.21128 0C5.58877 0 5.89514 0.306369 5.89514 0.683859L5.89487 1.43975H11.8928L11.8932 0.683859C11.8932 0.306369 12.1996 0 12.5771 0ZM16.4126 8.11878H1.36772V14.6092C1.36772 16.9489 2.66979 18.2363 5.03412 18.2363H12.7462C15.1106 18.2363 16.4127 16.9726 16.4127 14.6785L16.4126 8.11878ZM12.9488 13.8562C13.3263 13.8562 13.6327 14.1625 13.6327 14.54C13.6327 14.9175 13.3263 15.2239 12.9488 15.2239C12.5713 15.2239 12.2613 14.9175 12.2613 14.54C12.2613 14.1625 12.5631 13.8562 12.9406 13.8562H12.9488ZM8.90267 13.8562C9.28016 13.8562 9.58652 14.1625 9.58652 14.54C9.58652 14.9175 9.28016 15.2239 8.90267 15.2239C8.52517 15.2239 8.21516 14.9175 8.21516 14.54C8.21516 14.1625 8.51697 13.8562 8.89446 13.8562H8.90267ZM4.84802 13.8562C5.22551 13.8562 5.53188 14.1625 5.53188 14.54C5.53188 14.9175 5.22551 15.2239 4.84802 15.2239C4.47053 15.2239 4.1596 14.9175 4.1596 14.54C4.1596 14.1625 4.46232 13.8562 4.83981 13.8562H4.84802ZM12.9488 10.3122C13.3263 10.3122 13.6327 10.6186 13.6327 10.9961C13.6327 11.3736 13.3263 11.68 12.9488 11.68C12.5713 11.68 12.2613 11.3736 12.2613 10.9961C12.2613 10.6186 12.5631 10.3122 12.9406 10.3122H12.9488ZM8.90267 10.3122C9.28016 10.3122 9.58652 10.6186 9.58652 10.9961C9.58652 11.3736 9.28016 11.68 8.90267 11.68C8.52517 11.68 8.21516 11.3736 8.21516 10.9961C8.21516 10.6186 8.51697 10.3122 8.89446 10.3122H8.90267ZM4.84802 10.3122C5.22551 10.3122 5.53188 10.6186 5.53188 10.9961C5.53188 11.3736 5.22551 11.68 4.84802 11.68C4.47053 11.68 4.1596 11.3736 4.1596 10.9961C4.1596 10.6186 4.46232 10.3122 4.83981 10.3122H4.84802ZM11.8928 2.80747H5.89487L5.89514 3.68463C5.89514 4.06213 5.58877 4.36849 5.21128 4.36849C4.83379 4.36849 4.52742 4.06213 4.52742 3.68463L4.52694 2.82817C2.48427 2.99977 1.36772 4.23797 1.36772 6.35816V6.75106H16.4126L16.4127 6.35816C16.4163 5.23207 16.1136 4.35673 15.5127 3.75494C14.9852 3.22591 14.2141 2.90996 13.2617 2.82861L13.2609 3.68463C13.2609 4.06213 12.9546 4.36849 12.5771 4.36849C12.1996 4.36849 11.8932 4.06213 11.8932 3.68463L11.8928 2.80747Z" fill="#F38F18"/>
</svg>
