<svg width="29" height="29" viewBox="0 0 29 29" fill="none" xmlns="http://www.w3.org/2000/svg">
<rect width="29" height="29" rx="10" fill="url(#paint0_linear_637_3225)"/>
<path opacity="0.4" d="M18.6827 7.4834H15.5677C13.0089 7.4834 11.9706 8.49948 11.9409 11.0063H14.2327C17.3477 11.0063 18.7939 12.4526 18.7939 15.5676V17.8593C21.3008 17.8296 22.3168 16.7913 22.3168 14.2326V11.1176C22.3168 8.52173 21.2785 7.4834 18.6827 7.4834Z" fill="white"/>
<path d="M14.2326 11.9333H11.1176C8.52173 11.9333 7.4834 12.9717 7.4834 15.5675V18.6825C7.4834 21.2783 8.52173 22.3167 11.1176 22.3167H14.2326C16.8284 22.3167 17.8667 21.2783 17.8667 18.6825V15.5675C17.8667 12.9717 16.8284 11.9333 14.2326 11.9333ZM15.1151 16.1238L12.3636 18.8753C12.2597 18.9792 12.1262 19.0311 11.9853 19.0311C11.8444 19.0311 11.7109 18.9792 11.6071 18.8753L10.2276 17.4958C10.0199 17.2882 10.0199 16.9544 10.2276 16.7468C10.4352 16.5391 10.769 16.5391 10.9766 16.7468L11.9779 17.748L14.3586 15.3673C14.5663 15.1596 14.9001 15.1596 15.1077 15.3673C15.3154 15.5749 15.3228 15.9161 15.1151 16.1238Z" fill="white"/>
<defs>
<linearGradient id="paint0_linear_637_3225" x1="-4.08974" y1="-11.1538" x2="36.0641" y2="29" gradientUnits="userSpaceOnUse">
<stop stop-color="#C84E89"/>
<stop offset="1" stop-color="#F15F79"/>
</linearGradient>
</defs>
</svg>
