<svg width="30" height="30" viewBox="0 0 30 30" fill="none" xmlns="http://www.w3.org/2000/svg">
<rect width="30" height="30" rx="10" fill="url(#paint0_linear_637_3222)"/>
<path d="M22.4219 10.7322V14.5173C22.4219 15.4599 22.1102 16.254 21.5535 16.8033C21.0043 17.3599 20.2102 17.6716 19.2676 17.6716V19.015C19.2676 19.5197 18.7035 19.824 18.2879 19.5419L17.568 19.0669C17.6348 18.8369 17.6645 18.5845 17.6645 18.3173V15.2966C17.6645 13.7826 16.6551 12.7732 15.141 12.7732H10.1016C9.99765 12.7732 9.90117 12.7806 9.80469 12.7881V10.7322C9.80469 8.8396 11.0664 7.57788 12.959 7.57788H19.2676C21.1602 7.57788 22.4219 8.8396 22.4219 10.7322Z" fill="white" fill-opacity="0.5"/>
<path d="M17.6645 15.2969V18.3176C17.6645 18.5847 17.6348 18.8371 17.568 19.0672C17.2934 20.1582 16.3879 20.841 15.141 20.841H13.1223L10.8809 22.3328C10.5469 22.5629 10.1016 22.318 10.1016 21.9172V20.841C9.34453 20.841 8.71367 20.5887 8.27578 20.1508C7.83047 19.7055 7.57812 19.0746 7.57812 18.3176V15.2969C7.57812 13.8867 8.45391 12.9145 9.80469 12.7883C9.90117 12.7809 9.99765 12.7734 10.1016 12.7734H15.141C16.6551 12.7734 17.6645 13.7828 17.6645 15.2969Z" fill="white"/>
<defs>
<linearGradient id="paint0_linear_637_3222" x1="-12" y1="2" x2="38.6667" y2="30" gradientUnits="userSpaceOnUse">
<stop stop-color="#0052D4"/>
<stop offset="0.5" stop-color="#4364F7"/>
<stop offset="1" stop-color="#6FB1FC"/>
</linearGradient>
</defs>
</svg>
