<svg width="30" height="30" viewBox="0 0 30 30" fill="none" xmlns="http://www.w3.org/2000/svg">
<rect width="30" height="30" rx="10" fill="url(#paint0_linear_637_3228)"/>
<path opacity="0.4" d="M17.8667 7.4834H11.9334C8.96673 7.4834 7.4834 8.96673 7.4834 11.9334V21.5751C7.4834 21.983 7.81715 22.3167 8.22507 22.3167H17.8667C20.8334 22.3167 22.3167 20.8334 22.3167 17.8667V11.9334C22.3167 8.96673 20.8334 7.4834 17.8667 7.4834Z" fill="white"/>
<path d="M18.6082 12.4895H11.1915C10.8874 12.4895 10.6353 12.7417 10.6353 13.0458C10.6353 13.3498 10.8874 13.602 11.1915 13.602H18.6082C18.9123 13.602 19.1644 13.3498 19.1644 13.0458C19.1644 12.7417 18.9123 12.4895 18.6082 12.4895Z" fill="white"/>
<path d="M16.3832 16.1978H11.1915C10.8874 16.1978 10.6353 16.4499 10.6353 16.754C10.6353 17.0581 10.8874 17.3103 11.1915 17.3103H16.3832C16.6873 17.3103 16.9394 17.0581 16.9394 16.754C16.9394 16.4499 16.6873 16.1978 16.3832 16.1978Z" fill="white"/>
<defs>
<linearGradient id="paint0_linear_637_3228" x1="0" y1="15" x2="30" y2="15" gradientUnits="userSpaceOnUse">
<stop stop-color="#BF5AE0"/>
<stop offset="1" stop-color="#A811DA"/>
</linearGradient>
</defs>
</svg>
