<svg width="30" height="30" viewBox="0 0 30 30" fill="none" xmlns="http://www.w3.org/2000/svg">
<rect width="30" height="30" rx="10" fill="url(#paint0_linear_741_3819)"/>
<path opacity="0.4" d="M15 9.41667V22.775C15.1417 22.775 15.2917 22.75 15.4083 22.6833L15.4417 22.6667C17.0417 21.7917 19.8333 20.875 21.6416 20.6334L21.8833 20.6C22.6833 20.5 23.3333 19.75 23.3333 18.95V8.88332C23.3333 7.89166 22.525 7.14167 21.5334 7.225C19.7834 7.36667 17.1334 8.25002 15.65 9.17502L15.4417 9.29999C15.3167 9.37499 15.1583 9.41667 15 9.41667Z" fill="white"/>
<path d="M6.66699 8.89163V18.95C6.66699 19.75 7.31698 20.5 8.11698 20.6L8.392 20.6333C10.2087 20.875 13.0087 21.8 14.6087 22.6833C14.717 22.75 14.8503 22.775 15.0003 22.775V9.41663C14.842 9.41663 14.6836 9.37495 14.5586 9.29995L14.417 9.2083C12.9336 8.27496 10.2753 7.3833 8.52531 7.2333H8.47531C7.48364 7.14997 6.66699 7.89163 6.66699 8.89163Z" fill="white"/>
<defs>
<linearGradient id="paint0_linear_741_3819" x1="0" y1="15" x2="30" y2="15" gradientUnits="userSpaceOnUse">
<stop stop-color="#4CB8C4"/>
<stop offset="1" stop-color="#3CD3AD"/>
</linearGradient>
</defs>
</svg>
