<svg width="30" height="30" viewBox="0 0 30 30" fill="none" xmlns="http://www.w3.org/2000/svg">
<rect width="30" height="30" rx="10" fill="url(#paint0_linear_741_3816)"/>
<path d="M18.9582 7.96665V6.66666C18.9582 6.32499 18.6749 6.04166 18.3332 6.04166C17.9915 6.04166 17.7082 6.32499 17.7082 6.66666V7.91666H12.2915V6.66666C12.2915 6.32499 12.0082 6.04166 11.6665 6.04166C11.3249 6.04166 11.0415 6.32499 11.0415 6.66666V7.96665C8.79153 8.17499 7.69987 9.51665 7.5332 11.5083C7.51653 11.75 7.71653 11.95 7.94987 11.95H22.0499C22.2915 11.95 22.4915 11.7417 22.4665 11.5083C22.2999 9.51665 21.2082 8.17499 18.9582 7.96665Z" fill="white"/>
<path opacity="0.4" d="M21.6667 13.2C22.125 13.2 22.5 13.575 22.5 14.0333V19.1667C22.5 21.6667 21.25 23.3333 18.3333 23.3333H11.6667C8.75 23.3333 7.5 21.6667 7.5 19.1667V14.0333C7.5 13.575 7.875 13.2 8.33333 13.2H21.6667Z" fill="white"/>
<path d="M12.0833 17.5C11.8667 17.5 11.65 17.4083 11.4917 17.2583C11.3417 17.1 11.25 16.8833 11.25 16.6667C11.25 16.45 11.3417 16.2333 11.4917 16.075C11.725 15.8417 12.0917 15.7667 12.4 15.9C12.5083 15.9417 12.6 16 12.675 16.075C12.825 16.2333 12.9167 16.45 12.9167 16.6667C12.9167 16.8833 12.825 17.1 12.675 17.2583C12.5167 17.4083 12.3 17.5 12.0833 17.5Z" fill="white"/>
<path d="M15.0003 17.5C14.7837 17.5 14.567 17.4083 14.4087 17.2583C14.2587 17.1 14.167 16.8833 14.167 16.6667C14.167 16.45 14.2587 16.2333 14.4087 16.075C14.4837 16 14.5753 15.9417 14.6837 15.9C14.992 15.7667 15.3587 15.8417 15.592 16.075C15.742 16.2333 15.8337 16.45 15.8337 16.6667C15.8337 16.8833 15.742 17.1 15.592 17.2583C15.5503 17.2917 15.5087 17.325 15.467 17.3583C15.417 17.3917 15.367 17.4167 15.317 17.4333C15.267 17.4583 15.217 17.475 15.167 17.4833C15.1087 17.4917 15.0587 17.5 15.0003 17.5Z" fill="white"/>
<path d="M17.9163 17.5C17.6997 17.5 17.483 17.4083 17.3247 17.2583C17.1747 17.1 17.083 16.8834 17.083 16.6667C17.083 16.45 17.1747 16.2334 17.3247 16.075C17.408 16 17.4913 15.9417 17.5997 15.9C17.7497 15.8333 17.9163 15.8167 18.083 15.85C18.133 15.8583 18.183 15.875 18.233 15.9C18.283 15.9167 18.333 15.9417 18.383 15.975C18.4247 16.0084 18.4663 16.0417 18.508 16.075C18.658 16.2334 18.7497 16.45 18.7497 16.6667C18.7497 16.8834 18.658 17.1 18.508 17.2583C18.4663 17.2917 18.4247 17.325 18.383 17.3583C18.333 17.3917 18.283 17.4167 18.233 17.4334C18.183 17.4584 18.133 17.475 18.083 17.4834C18.0247 17.4917 17.9663 17.5 17.9163 17.5Z" fill="white"/>
<path d="M12.0833 20.4167C11.975 20.4167 11.8667 20.3917 11.7667 20.35C11.6583 20.3084 11.575 20.25 11.4917 20.175C11.3417 20.0167 11.25 19.8 11.25 19.5833C11.25 19.3667 11.3417 19.15 11.4917 18.9917C11.575 18.9167 11.6583 18.8583 11.7667 18.8167C11.9167 18.75 12.0833 18.7333 12.25 18.7667C12.3 18.775 12.35 18.7917 12.4 18.8167C12.45 18.8333 12.5 18.8584 12.55 18.8917C12.5917 18.925 12.6333 18.9584 12.675 18.9917C12.825 19.15 12.9167 19.3667 12.9167 19.5833C12.9167 19.8 12.825 20.0167 12.675 20.175C12.6333 20.2083 12.5917 20.25 12.55 20.275C12.5 20.3083 12.45 20.3334 12.4 20.35C12.35 20.375 12.3 20.3917 12.25 20.4C12.1917 20.4084 12.1417 20.4167 12.0833 20.4167Z" fill="white"/>
<path d="M15.0003 20.4167C14.7837 20.4167 14.567 20.325 14.4087 20.175C14.2587 20.0167 14.167 19.8 14.167 19.5833C14.167 19.3667 14.2587 19.15 14.4087 18.9917C14.717 18.6834 15.2837 18.6834 15.592 18.9917C15.742 19.15 15.8337 19.3667 15.8337 19.5833C15.8337 19.8 15.742 20.0167 15.592 20.175C15.4337 20.325 15.217 20.4167 15.0003 20.4167Z" fill="white"/>
<path d="M17.9163 20.4167C17.6997 20.4167 17.483 20.325 17.3247 20.175C17.1747 20.0167 17.083 19.8 17.083 19.5833C17.083 19.3667 17.1747 19.15 17.3247 18.9917C17.633 18.6834 18.1997 18.6834 18.508 18.9917C18.658 19.15 18.7497 19.3667 18.7497 19.5833C18.7497 19.8 18.658 20.0167 18.508 20.175C18.3497 20.325 18.133 20.4167 17.9163 20.4167Z" fill="white"/>
<defs>
<linearGradient id="paint0_linear_741_3816" x1="-4.23077" y1="-11.5385" x2="37.3077" y2="30" gradientUnits="userSpaceOnUse">
<stop stop-color="#C84E89"/>
<stop offset="1" stop-color="#F15F79"/>
</linearGradient>
</defs>
</svg>
