<svg width="30" height="30" viewBox="0 0 30 30" fill="none" xmlns="http://www.w3.org/2000/svg">
<rect width="30" height="30" rx="10" fill="url(#paint0_linear_741_3823)"/>
<path d="M11.667 9.79167C11.3253 9.79167 11.042 9.50834 11.042 9.16667V6.66667C11.042 6.32501 11.3253 6.04167 11.667 6.04167C12.0087 6.04167 12.292 6.32501 12.292 6.66667V9.16667C12.292 9.50834 12.0087 9.79167 11.667 9.79167Z" fill="white"/>
<path d="M18.333 9.79167C17.9913 9.79167 17.708 9.50834 17.708 9.16667V6.66667C17.708 6.32501 17.9913 6.04167 18.333 6.04167C18.6747 6.04167 18.958 6.32501 18.958 6.66667V9.16667C18.958 9.50834 18.6747 9.79167 18.333 9.79167Z" fill="white"/>
<path opacity="0.4" d="M22.5 12.0833V19.1667C22.5 21.6667 21.25 23.3333 18.3333 23.3333H11.6667C8.75 23.3333 7.5 21.6667 7.5 19.1667V12.0833C7.5 9.58334 8.75 7.91667 11.6667 7.91667H18.3333C21.25 7.91667 22.5 9.58334 22.5 12.0833Z" fill="white"/>
<path d="M18.3337 14.7917H11.667C11.3253 14.7917 11.042 14.5083 11.042 14.1667C11.042 13.825 11.3253 13.5417 11.667 13.5417H18.3337C18.6753 13.5417 18.9587 13.825 18.9587 14.1667C18.9587 14.5083 18.6753 14.7917 18.3337 14.7917Z" fill="white"/>
<path d="M15.0003 18.9583H11.667C11.3253 18.9583 11.042 18.675 11.042 18.3333C11.042 17.9917 11.3253 17.7083 11.667 17.7083H15.0003C15.342 17.7083 15.6253 17.9917 15.6253 18.3333C15.6253 18.675 15.342 18.9583 15.0003 18.9583Z" fill="white"/>
<defs>
<linearGradient id="paint0_linear_741_3823" x1="0" y1="15" x2="30" y2="15" gradientUnits="userSpaceOnUse">
<stop stop-color="#FFA751"/>
<stop offset="1" stop-color="#FFE259"/>
</linearGradient>
</defs>
</svg>
