<svg width="30" height="30" viewBox="0 0 30 30" fill="none" xmlns="http://www.w3.org/2000/svg">
<rect width="30" height="30" rx="10" fill="url(#paint0_linear_741_3813)"/>
<path d="M21.2846 8.61144C20.9513 8.29206 20.458 8.17394 19.998 8.29894L9.27129 11.2046C8.78595 11.3308 8.44195 11.6914 8.34929 12.1489C8.25462 12.6152 8.58529 13.2077 9.01729 13.4552L12.3713 15.3752C12.7153 15.5727 13.1593 15.5233 13.444 15.2558L17.2846 11.6552C17.478 11.4671 17.798 11.4671 17.9913 11.6552C18.1846 11.8358 18.1846 12.1302 17.9913 12.3177L14.144 15.9183C13.8586 16.1858 13.8053 16.6008 14.0153 16.9239L16.0646 20.0802C16.3046 20.4546 16.718 20.6677 17.1713 20.6677C17.2246 20.6677 17.2846 20.6677 17.338 20.6608C17.858 20.5989 18.2713 20.2671 18.4246 19.7983L21.6046 9.81769C21.7446 9.39269 21.618 8.93019 21.2846 8.61144Z" fill="white"/>
<path opacity="0.4" d="M13.3006 18.9639C13.4953 19.147 13.4953 19.4439 13.3006 19.627L12.3899 20.4801C12.2926 20.572 12.1646 20.6176 12.0366 20.6176C11.9086 20.6176 11.7806 20.572 11.6833 20.4801C11.4879 20.297 11.4879 20.0008 11.6833 19.8176L12.5933 18.9639C12.7886 18.7814 13.1053 18.7814 13.3006 18.9639ZM12.7781 16.5964C12.9728 16.7795 12.9728 17.0764 12.7781 17.2595L11.8675 18.1126C11.7701 18.2045 11.6421 18.2501 11.5141 18.2501C11.3861 18.2501 11.2581 18.2045 11.1608 18.1126C10.9655 17.9295 10.9655 17.6333 11.1608 17.4501L12.0708 16.5964C12.2661 16.4139 12.5828 16.4139 12.7781 16.5964ZM10.2707 15.8511C10.4653 16.0343 10.4653 16.3311 10.2707 16.5143L9.36 17.3674C9.26267 17.4593 9.13467 17.5049 9.00667 17.5049C8.87867 17.5049 8.75067 17.4593 8.65334 17.3674C8.458 17.1843 8.458 16.888 8.65334 16.7049L9.56334 15.8511C9.75867 15.6686 10.0753 15.6686 10.2707 15.8511Z" fill="white"/>
<defs>
<linearGradient id="paint0_linear_741_3813" x1="-12" y1="2" x2="38.6667" y2="30" gradientUnits="userSpaceOnUse">
<stop stop-color="#0052D4"/>
<stop offset="0.5" stop-color="#4364F7"/>
<stop offset="1" stop-color="#6FB1FC"/>
</linearGradient>
</defs>
</svg>
